<svg id="Layer_1" data-name="Layer 1" xmlns="http://www.w3.org/2000/svg" xmlns:xlink="http://www.w3.org/1999/xlink" viewBox="0 0 1081 576"><defs><style>.cls-1,.cls-11{fill:none;}.cls-2{clip-path:url(#clip-path);}.cls-3{fill:#9afdff;}.cls-4{fill:#8dc6cc;}.cls-5{fill:#83b5b7;}.cls-6{fill:#c1272d;}.cls-7{fill:#000c2b;}.cls-8{fill:#fff;}.cls-9{fill:#008857;}.cls-10{fill:#00b557;}.cls-11{stroke:#54d1ff;stroke-miterlimit:10;}.cls-12{fill:#54d1ff;}.cls-13{fill:#a5e7ff;}.cls-14{fill:#d6f8ff;}.cls-15{fill:#422e16;}.cls-16{fill:#317636;}.cls-17{fill:#315e36;}</style><clipPath id="clip-path"><rect class="cls-1" y="1" width="1081" height="575"/></clipPath></defs><title>background</title><g class="cls-2"><rect class="cls-3" y="1" width="1081" height="577"/><polyline class="cls-4" points="156.78 243.96 175.22 243.96 177.49 234.22 172.94 234.22 172.94 229.35 167.1 229.35 167.1 234.22 160.93 234.22 160.93 228.05 156.78 228.05 157.49 228.05 153.34 228.05 153.34 234.22 147.17 234.22 147.17 229.35 141.32 229.35 141.32 234.22 136.77 234.22 139.05 243.96 157.49 243.96"/><polyline class="cls-4" points="255.26 243.96 273.7 243.96 275.97 234.22 271.42 234.22 271.42 229.35 265.58 229.35 265.58 234.22 259.41 234.22 259.41 228.05 255.26 228.05 255.97 228.05 251.81 228.05 251.81 234.22 245.65 234.22 245.65 229.35 239.8 229.35 239.8 234.22 235.25 234.22 237.53 243.96 255.97 243.96"/><polyline class="cls-4" points="141.15 243.43 173 243.43 182.52 323.97 132 323.97 132 323.23 141.52 242.69"/><polyline class="cls-5" points="193.78 185.58 218.93 185.58 226.45 266.12 186.55 266.12 186.55 265.39 194.07 184.85"/><polyline class="cls-4" points="239.63 243.43 271.48 243.43 281 323.97 230.48 323.97 230.48 323.23 240 242.69"/><rect class="cls-4" x="170.07" y="258.44" width="71.75" height="65.53"/><polygon class="cls-6" points="217.65 174.53 228.72 193.75 206.54 193.73 184.36 193.71 195.47 174.51 206.58 155.31 217.65 174.53"/><ellipse class="cls-7" cx="205.77" cy="323.97" rx="19.22" ry="31.12"/><ellipse class="cls-7" cx="248.6" cy="263.19" rx="4.58" ry="7.41"/><ellipse class="cls-7" cx="262.88" cy="263.19" rx="4.58" ry="7.41"/><rect class="cls-8" x="145.18" y="323.97" width="121.18" height="60.41"/><rect class="cls-4" x="241.83" y="263.19" width="27.82" height="16.47"/><ellipse class="cls-7" cx="150.12" cy="261.73" rx="4.58" ry="7.41"/><ellipse class="cls-7" cx="164.4" cy="261.73" rx="4.58" ry="7.41"/><rect class="cls-4" x="143.35" y="261.73" width="27.82" height="16.47"/><ellipse class="cls-7" cx="199.54" cy="213.41" rx="4.58" ry="7.41"/><ellipse class="cls-7" cx="213.82" cy="213.41" rx="4.58" ry="7.41"/><rect class="cls-5" x="192.77" y="213.41" width="27.82" height="16.47"/><ellipse class="cls-9" cx="982.08" cy="575.13" rx="267.65" ry="144.31" transform="translate(-92.16 199.27) rotate(-11.07)"/><ellipse class="cls-9" cx="206.41" cy="469.5" rx="163.74" ry="163.6" transform="translate(-86.31 48.37) rotate(-11.07)"/><ellipse class="cls-10" cx="544.54" cy="601.76" rx="187.87" ry="675.57" transform="translate(-151.38 1019.29) rotate(-78.82)"/><path class="cls-11" d="M399,389.34c-44.3-2.65-75.36,9-97.5,24.12-47.35,32.44-51,79.14-100,122.33C170,563.54,135.17,576.33,105,582.36"/><path class="cls-11" d="M316.5,581.8a260.3,260.3,0,0,0,10-31.42c14.1-56.42,1.06-84.52,14-114.47,6.3-14.58,20.62-33.91,58-47.13"/><path class="cls-12" d="M249.5,552.22a131.39,131.39,0,0,0,17.91-14.43c1.41-1.35-.68-3.37-2.12-2.12-7.22,6.28-16.81,8.75-24,15.15l2.35,1.82q3.27-4.54,6.62-9c2.38-3.17,4.72-7.19,8.88-8.1L257.72,533a24,24,0,0,1-10.16,7.56l1.7,2.2a78.76,78.76,0,0,1,10.8-13.67c1.37-1.39-.68-3.39-2.12-2.12a144.73,144.73,0,0,1-14.42,11.11l2,2.06a91.37,91.37,0,0,1,13.71-15.22l-2.35-1.81a9.31,9.31,0,0,1-2.58,3.53l2.12,2.12,6.22-5.57c1.06-1-.06-3.1-1.46-2.51l-6.8,2.85,1.46,2.5c7.08-5.92,12.24-17.59,22.49-18.25l-.75-2.79-3.49,2.56a1.5,1.5,0,0,0,1.51,2.59l8.27-3.71c1.54-.69,7.87-4.53,9.29-3.57l-.54-2.05a56.58,56.58,0,0,1-6.34,10.13c-.83,1.06-.11,3,1.46,2.51,6.35-2.1,11.07-8.9,17.92-9.3l-1.3-2.25a29.66,29.66,0,0,1-9.25,11.62c-.9.67-1.07,2.52.35,2.74,4.48.7,8.11-.85,12-2.94L305.71,511l-9.45,11.59c-.62.76-.57,2.33.67,2.51A16.36,16.36,0,0,0,307,523.48l-2.25-1.29c.19,5-5.55,7.2-7.81,11.08a1.52,1.52,0,0,0,1.29,2.25l5.58.69c1.91.23,1.89-2.77,0-3l-5.58-.69,1.3,2.26c2.76-4.72,8.45-6.35,8.22-12.59a1.53,1.53,0,0,0-2.26-1.3,12.5,12.5,0,0,1-7.76,1.27l.67,2.51,9.45-11.59a1.51,1.51,0,0,0-1.82-2.36c-3.13,1.67-6,3.22-9.71,2.64l.36,2.74A32.51,32.51,0,0,0,307,503.4a1.52,1.52,0,0,0-1.29-2.26c-7.52.44-11.9,7.15-18.71,9.41l1.45,2.51a60.22,60.22,0,0,0,6.81-10.75,1.55,1.55,0,0,0-.54-2.05c-2.19-1.49-4.37,0-6.53,1l-14.05,6.31,1.51,2.59,3.49-2.56c1.08-.79.88-2.9-.76-2.8-11.55.74-16.67,12.49-24.62,19.13-1.1.93.09,3.09,1.46,2.51l6.81-2.85-1.46-2.51-6.22,5.58c-1.44,1.3.67,3.37,2.12,2.12a10.67,10.67,0,0,0,3-4.14,1.51,1.51,0,0,0-2.36-1.82A95.15,95.15,0,0,0,243,538.61c-.87,1.22.84,2.87,2.05,2a150.5,150.5,0,0,0,15-11.58L257.94,527a81.82,81.82,0,0,0-11.27,14.28c-.66,1,.45,2.68,1.69,2.2a26.91,26.91,0,0,0,11.48-8.33,1.51,1.51,0,0,0-1.46-2.5c-3.68.81-5.94,3.33-8.19,6.2-3.14,4-6.13,8.17-9.1,12.32-1,1.45,1.15,2.9,2.36,1.82,7.13-6.39,16.73-8.86,24-15.16l-2.12-2.12a128.09,128.09,0,0,1-17.3,14c-1.6,1.07-.1,3.67,1.51,2.59Z"/><path class="cls-12" d="M301.29,421.32a33,33,0,0,0-16.41,8.33,57.39,57.39,0,0,0-5.52,6.71c-.23.31-2.19,2.65-.8,1.08,1.55-1.77-1.44,1.39-1.45,1.4L307,451.22l-.06-1.23-5.12,12.37q-2.4,1.49-1,.54,2-1.45,4-3a19.83,19.83,0,0,0,4.31-6.51c2.56-6.07,1.75-11.43-1-17.32-2.91-6.24-11.15-9.2-17.44-8.36-7.09,1-12.29,5.82-14.55,12.54-5.25,15.65-11,31.23-14.2,47.46a214,214,0,0,0-4,51.87c.73,15.05,18.66,23.2,29.88,12.37,6.3-6.08,9.4-15.1,13.15-22.84,3.49-7.23,7-14.44,10.48-21.68a115.72,115.72,0,0,0,8.82-23.9c1.78-7.73,3.33-15.52,5.15-23.24L296.11,468q2,2.06-.19-.51c.9,1.72.86,1.57-.11-.43.24,1,1,6.8.68,2.45.27,4.17.42,8.33.36,12.5-.06,5.14-.44,10.24-.93,15.35-.26,2.19-.3,2.54-.1,1.06-.18,1.27-.38,2.53-.6,3.79q-.45,2.68-1,5.34c-1.77,8.83-3.94,17.6-6,26.35a62.8,62.8,0,0,1-1.82,6.75c.74-1.5.64-1.32-.31.52q-1.67,2.55-.05.21a26.18,26.18,0,0,1-2.21,2.13c1.58-1.18,1.55-1.23-.09-.13-1.79.93-1.73.92.17,0-2,.48-2.44.59-1.37.34-2.19.22-8.71,0-12.47,0-4.59,0-9.19.08-13.78,0a43.52,43.52,0,0,1-6.46-.38c1.61.15,1.34,0-.81-.36q-4.23-1.39,3.48,2.4,6.54,7.88,1.1,14.54-2.15,1.66.44.09a37.56,37.56,0,0,0,5-2.33c10.39-5.54,14.25-15.67,18.3-26,3.51-8.94,6.54-18,8-27.52,1.36-8.72-1.51-17-10.14-20.64s-16.59,0-21.85,7.16c-2.88,3.89-5.5,8-8.12,12-1.31,2-2.61,4.09-4,6.09-.67,1-1.36,2-2.06,3q-1.76,2.37-.78,1.09a102.26,102.26,0,0,1-8,8.41c-.47.42-5.47,4.36-3.05,2.62-.91.66-1.84,1.29-2.78,1.91q-4.8,2.73,4.57-.39L244.31,534l-.36-.51L245.71,547c-1.1,2.39-1.14,2.46-.09.21.51-1.09,1-2.17,1.56-3.25,1.07-2.15,2.17-4.28,3.32-6.39q3-5.49,6.4-10.75c1.29-2,2.61-4,4-5.89.35-.49,4.24-5.72,2.51-3.48,3-3.86,6.1-7.62,9-11.57a60,60,0,0,0,6.09-10.22c-.41.89,4.87-10.38,2.17-5.46a69.8,69.8,0,0,1,3.74-5.9q8.37-12.12,16.75-24.22c5.23-7.55,1.65-19.76-6.27-23.94-8.92-4.71-18.37-1.78-23.95,6.28L255.26,465a62.11,62.11,0,0,0-7.17,13c-.23.58-1.88,4.15-.59,1.57Q246.36,481.8,245,484c-1.2,1.92-2.53,3.76-3.88,5.57,1.86-2.49-1.4,1.74-1.44,1.8-3.08,3.9-6.16,7.82-9,11.88a171.55,171.55,0,0,0-12.48,20.62c-2.11,4.11-4.75,8.69-6.05,13.13a18.51,18.51,0,0,0,8.23,21c11.67,6.83,22.86-2.12,31.61-9.23,13.63-11.08,21.39-26.59,31.64-40.45l-32-13.48a129.07,129.07,0,0,1-7.7,26.66c-.45,1.15-.91,2.29-1.36,3.43-.07.17-1.26,3-.4,1,1-2.24-1.66,3.43-1.88,3.3-.8-.51,4.25-3.31-.34-1.15a43.33,43.33,0,0,0-6.36,3.26c-12.06,8.34-17.67,26-6.64,37.77,7.5,8,18.85,9.32,29.31,9.54,9.13.19,18.54.51,27.64-.13a39.5,39.5,0,0,0,29.24-15.35c6.15-8,8.18-17.37,10.44-27,2.08-8.83,4.29-17.64,5.7-26.6a183.92,183.92,0,0,0,2.49-35.3c-.4-11.27-2.35-22.93-10.91-31.07-9.2-8.74-26.13-5.47-29.25,7.73-1.69,7.14-3.17,14.32-4.75,21.49-.71,3.19-1.47,6.37-2.48,9.49a40.06,40.06,0,0,1-3.21,7.79c-3.18,6.67-6.43,13.3-9.64,19.94l-5.06,10.46c-.71,1.45-1.4,2.91-2.11,4.36q-.57,1.18-1.17,2.37-1.56,2.73-.18.32l29.87,12.37a199.56,199.56,0,0,1,.26-24.21c.14-1.85.3-3.71.49-5.56,0,0,.68-5.61.29-2.73.54-4,1.27-7.95,2.09-11.88,3.26-15.59,8.77-30.59,13.83-45.65l-32,4.18.38.81L276.47,441l-.27.93,4.5-7.72c2.37-1.5,2.63-1.65.76-.44a12.18,12.18,0,0,0-4.4,3.83A18.2,18.2,0,0,0,272,451.22c.65,14.95,18.76,23.32,29.87,12.37a38.65,38.65,0,0,0,2.83-3.16c-.86,1.05,5.8-7.07,4-5.18-.79,1-.63.88.46-.38q-2.52,1.61-.78.57t-.7.3c1-.26,2-.49,3-.67,9-1.86,15-12.94,12.22-21.53-3.07-9.5-11.9-14.21-21.53-12.22Z"/><path class="cls-12" d="M300.25,456.21c9.15,0,17.92-8,17.5-17.5s-7.69-17.5-17.5-17.5c-9.15,0-17.92,8.05-17.5,17.5s7.69,17.5,17.5,17.5Z"/><path class="cls-12" d="M305,452.29c9.15,0,17.92-8.05,17.5-17.5s-7.69-17.5-17.5-17.5c-9.15,0-17.92,8-17.5,17.5s7.69,17.5,17.5,17.5Z"/><path class="cls-12" d="M297,459.3c9.15,0,17.92-8.05,17.5-17.5s-7.69-17.5-17.5-17.5c-9.15,0-17.92,8.05-17.5,17.5s7.69,17.5,17.5,17.5Z"/><path class="cls-12" d="M304.11,424.26a463.6,463.6,0,0,0-6.89,71.22c-.09,5.45,0,10.91-.24,16.36-.06,1.27-.15,2.53-.26,3.79,0,.45-.54,4.36-.17,1.82-.36,2.46-.82,4.9-1.3,7.33-1.1,5.55-2.33,11.08-3.52,16.61l-1.59,7.45c-.29,1.34-1,3-.95,4.33.05,1.53,1.71-2.68,0-.36l6.28-6.28,2.36-.92h9.31q8.16,5.14.73-.23a10.7,10.7,0,0,0-2.65-1.55,29.24,29.24,0,0,0-11.75-3.18,40.3,40.3,0,0,0-15.76,2.29c-2.21.74-4.38,1.63-6.62,2.28q-1.72.49-3.48.84,2.58-.25-.64,0c-.71,0-7.22-.42-4.2.07a40.22,40.22,0,0,1-6.89-1.91c-8.65-3-19.53,3.45-21.53,12.22-2.23,9.79,3,18.26,12.22,21.53a57.15,57.15,0,0,0,30.35,1.82c4.06-.84,7.81-2.47,11.76-3.67a31.88,31.88,0,0,1,3.36-.88c-1.88.2-2.16.28-.85.24s1,0-.89-.17a5.63,5.63,0,0,1-2.56-1.57,48.25,48.25,0,0,0,4.67,3.51l4.18,1.76a19.25,19.25,0,0,0,11.54.1c7.06-2.1,11.95-8,14.25-14.85,2.55-7.58,3.62-16,5.29-23.82a187.43,187.43,0,0,0,4.26-27.67c.55-9,.21-18.12.56-27.16a391,391,0,0,1,5.37-52.07c1.54-9-2.39-19.29-12.22-21.53-8.49-1.93-19.88,2.58-21.53,12.23Z"/><path class="cls-12" d="M225.33,539.61c-2,.52-4,1-6,1.44-.91.2-6.85.83-2.76.59l8.83,2.39-1.17-.53,6.28,6.28-.48-1.06,2.39,8.83.16-1.23-2.39,8.83c.66-1.45.31-1.44-.39-.12.93-1.74,2.55-3.24,3.71-4.87a62.32,62.32,0,0,0,3.92-6.33c1-1.85,1.84-3.76,2.72-5.66a25.18,25.18,0,0,0,1.25-2.49c.56-1.71-2.36,2.18.21,0l-29.87-12.38,0,15.17c0,5.37-.6,11.32,1,16.52a19.67,19.67,0,0,0,20,13.93c5.61-.25,11.4-2,16.89-3.2,7.18-1.51,13.17-9.59,12.84-16.87-.37-8.27-5.31-14-12.84-16.88-4.59-1.76-12.52-1.45-16.6,1.83-2.78,2.24,10.87.57,5.58-1.15a41.37,41.37,0,0,0-5-1.21,110.87,110.87,0,0,0-22.79-1.51c-9.15.15-17.93,7.94-17.5,17.5.42,9.36,7.69,17.66,17.5,17.5,3,0,6.07-.11,9.1,0a51.94,51.94,0,0,1,5.44.37c-2.45-.34.72.25,1.61.47,3.56.86,7,1.85,10.76,1.85a22,22,0,0,0,6.84-1l4.19-1.77q2.76-1.33-.27.38h-9.3l1.16.45V542l-6.11,1.29-2.63.55q-5.12.86,3.32.53l10.46,8q1.65,9.38,1.42,3.68V533.29a17.56,17.56,0,0,0-10.76-16c-6.8-2.87-13.64-1.07-19.12,3.62-4.62,4-6.55,9.31-9.26,14.51-1.15,2.21-2.66,4.21-3.85,6.39-.71,1-.61.91.3-.25l-2.74,3.54a25.2,25.2,0,0,0-2.23,4.47A19.61,19.61,0,0,0,211.9,576c7,1.94,15.82-.85,22.74-2.65,8.86-2.31,15.1-12.62,12.22-21.53-3-9.12-12-14.69-21.53-12.22Z"/><path class="cls-12" d="M205.15,574.24c6.69,2.06,13.29,4.47,20.32,5.06a34.47,34.47,0,0,0,11.42-1.17c1.37-.35,2.69-.84,4.05-1.23.8-.26,1.62-.48,2.44-.66,1.22-.29,1.09-.25-.38.12,6.83.86,13.79-.11,20.52-1.28,1.74-.3,3.48-.66,5.22-1,.39-.08,4.83-.81,2.89-.55-1.78.24,3-.16,2.88-.16a36.34,36.34,0,0,1,5.21.31c9.12,1.08,17.89-8.83,17.5-17.5-.47-10.41-7.73-16.34-17.5-17.5-6.79-.81-13.61.42-20.29,1.65-1.45.26-2.89.56-4.35.82-.57.1-4.38.52-1.45.29a76.67,76.67,0,0,1-8.84,0,41.13,41.13,0,0,0-11.53,1.25c-1.1.28-2.16.66-3.24,1,0,0-4.58,1.14-2.57.87s-2.66-.77,0-.1c-1.43-.36-2.85-.81-4.26-1.24l-8.76-2.7c-8.75-2.7-19.47,3.2-21.53,12.22-2.16,9.48,2.85,18.64,12.22,21.53Z"/><path class="cls-12" d="M312.11,436.1q19.11-10.22,38.56-19.77l-15.15-2,.69.85L333,409.7l.17,1.17v-6.65q4.54-5.18,1-2.74l-2.53,2a22,22,0,0,0-4.07,4.56,49,49,0,0,0-4.44,8.76,174.53,174.53,0,0,0-7.73,20c-4.18,14-5.67,28.83-6.53,43.38-.82,14-1,28.06-2.32,42a184.1,184.1,0,0,1-3.08,19.79c-.77,3.66-1.63,7.31-2.6,10.92-.4,1.51-.81,3-1.25,4.5-.21.75-.44,1.49-.68,2.24.1-.39.2-.77.29-1.16l5.51-3.22c-1.45.52-1.59.61-.41.27l-3.92.06-5.87.1-13.71.22-26.45.43c-8.77.15-17.55.34-26.33.43-7.44.08-16.11-.6-22-4l4.49,4.48-.44-1,1.26,9.63-.41.84-4.49,4.48q1.84-1.14,0-.18l3-1.26a22.66,22.66,0,0,0,4.38-3,29.44,29.44,0,0,0,5.83-7.2c1.25-2,2.22-4.27,3.36-6.39a30.12,30.12,0,0,1,1.8-3l-.21.31q1.56-1.5,0-.07l-17.1-17.1a12.79,12.79,0,0,1-5.26,4.22c-3.92,2-7.07,3.49-10.39,6.57a183.54,183.54,0,0,1-18.46,14.45c-11.55,8.27-4.65,25.57,9.63,22.85l29.24-5.57-6.64-24.11-13.44,4.43c-11.78,3.89-12,20.28,0,24.11a38.16,38.16,0,0,0,15.59,1.72c6.72-.71,12.5-5.24,12.5-12.5,0-6.21-5.74-13.22-12.5-12.5a19.81,19.81,0,0,1-9-.83v24.11l13.44-4.43c15.4-5.08,9.1-27.11-6.64-24.11l-29.24,5.57L186,580.05c4.08-2.93,8.18-5.83,12.24-8.78s7.37-6.63,11.27-9.58c2.65-2,6.22-2.92,9-4.9a42.67,42.67,0,0,0,10.53-10.95c7.2-10.37-6.87-23.59-17.1-17.11A30.26,30.26,0,0,0,201.65,540c-.88,1.59-1.64,3.25-2.49,4.85-.47.87-1,1.71-1.45,2.58-1,1.9,1-.26-.81,1,0,0,1.76-1,1.82-1.06-.27.36-3.93,1.69-4.91,2.3a15.37,15.37,0,0,0-6.4,8.46,15.12,15.12,0,0,0,1.51,11.81c2.45,4.26,6.78,5.68,11.07,7.31,12.38,4.72,24.69,4.6,37.73,4.38l39.17-.63,17.63-.29c7.19-.12,14.92.72,21.1-3.56,5.35-3.71,7.2-9.81,8.85-15.78s3-12.11,4.17-18.25c4.45-24.45,3.71-49.18,6-73.83a127.78,127.78,0,0,1,8.79-37c1.06-2.57,2.14-5.14,3.35-7.64,1.53-3.14,1.14-2,3.89-4,8.33-6,8.72-16.27,2.5-23.91-3.64-4.47-10.51-4.23-15.15-1.95q-19.46,9.56-38.56,19.77c-5.95,3.19-7.8,11.44-4.49,17.11a12.73,12.73,0,0,0,17.11,4.48Z"/><path class="cls-12" d="M358.65,409.94c2.35-1.57,3.61-3.48,5.27-5.67l-2.15,2.15c-.23,0-.46,0-.69.05a18.44,18.44,0,0,0,2.21-.34,9.92,9.92,0,0,0,3-1.48,17,17,0,0,0,4.56-5.31c1.55-2.52.79-6.93-2.15-8.2-3.23-1.41-6.7-1.81-9.85.14a12.25,12.25,0,0,0-3.48,3.4c-.18.23-.36.48-.53.73l.22-.28,2.72-.64-.54-.15,2.15,2.15-.22-.47v6.06l-.08.23-2.65,1.54-.24-.1c3.23-.27,6-2.57,6-6,0-3-2.75-6.27-6-6-3.52.29-7,2-8,5.71-1.11,4,2,7.31,5.63,8.39a9.45,9.45,0,0,0,8.69-1.37,16.47,16.47,0,0,0,2.69-3c.58-.75.2-.22-.37.1-.84.48-1.16.39-2.2-.06l-2.15-8.21a11,11,0,0,0-.88,1.43c0-.19.7-.1.78-.16-.48.36-1.86.23-2.5.43a8.31,8.31,0,0,0-4.38,3.22c-.25.35-.46.71-.71,1.06.26-.37-.74.63-.25.31a6.14,6.14,0,0,0-2.15,8.21c1.56,2.66,5.5,4,8.2,2.15Z"/><path class="cls-12" d="M369,401.35a6.66,6.66,0,0,0,4-1.69c1.3-1,2.45-1,3.92-1.67s2.35-1.35,4.12-1.62a6.08,6.08,0,0,0,4-2,2.54,2.54,0,0,0-.51-3.93,10,10,0,0,0-6.6-1.55c-2.48.27-5,1.6-7.46,1-3.12-.79-4.45,4-1.33,4.82,4.28,1.09,9.07-2.29,12.87.08l-.51-3.93c-.77.89-2.11.63-3.17.87-1.35.31-2.17,1.1-3.38,1.64-1,.45-2.12.38-3.14.95-.71.4-2,2-2.79,2-3.19.23-3.21,5.23,0,5Z"/><path class="cls-12" d="M389.5,389.7a38.93,38.93,0,0,0-6.09.72l.48.83a3.33,3.33,0,0,1,3.49-.95l-.22-.83c-.73.79-1.46,1.57-2.22,2.33a.51.51,0,0,0,.61.79c.66-.31,7.26-3.65,7.53-2.7l.49-.64a15.44,15.44,0,0,0-7.72,2.7.5.5,0,0,0,.26.93,10.41,10.41,0,0,0,3.69-.73.5.5,0,0,0-.26-1c-6.31,1-11.9,5.06-17.25,8.31a106.67,106.67,0,0,0-15.89,11.38c-.49.43.22,1.14.7.71a106.44,106.44,0,0,1,15.69-11.23c5.28-3.2,10.81-7.19,17-8.2l-.26-1a9,9,0,0,1-3.43.7l.25.93a14.28,14.28,0,0,1,7.21-2.56.5.5,0,0,0,.48-.63c-.29-1-1-1.2-2-1.06-2.28.34-4.93,2.2-7,3.16l.61.79c.75-.77,1.49-1.54,2.22-2.34a.5.5,0,0,0-.22-.83,4.17,4.17,0,0,0-4.46,1.21.5.5,0,0,0,.48.83,36.8,36.8,0,0,1,5.83-.68c.64,0,.65-1,0-1Z"/><path class="cls-12" d="M332.57,494c-.06,3.76-.92,7.46-.95,11.22,0,3.95.73,8-.87,11.74l.91.12c-.63-3.43.56-6.67,1-10,.36-2.94-.21-5.88.71-8.75l-1-.13a20.13,20.13,0,0,1,0,4.59h1q-.21-4.65-.1-9.31a.5.5,0,0,0-1,0q-.11,4.66.1,9.31a.5.5,0,0,0,1,0,20.13,20.13,0,0,0,0-4.59.5.5,0,0,0-1-.13c-1.09,3.38-.39,7-1,10.48-.51,3-1.26,5.78-.7,8.83a.5.5,0,0,0,.91.12c1.46-3.41,1.14-6.91,1-10.54-.13-4.35.86-8.59.93-12.92a.5.5,0,0,0-1,0Z"/><path class="cls-12" d="M310.75,580.31a8.9,8.9,0,0,0,6.91-2.23c.84-.7,1.83-2.21.81-3.24a1.22,1.22,0,0,0-2.1.63c-.1.55.23,1.16.22,1.72a2.5,2.5,0,0,1-2.73,2.49c-1.75,0-3.34-1.16-4.88-1.87a.5.5,0,0,0-.51.87c1.14.73,2.37,1.79,3.76,1.92.66.06,4-.59,3.52,1.17l1,.13,0-1.72c0-.4-.57-.71-.86-.36a6.26,6.26,0,0,1-1.35,1.32l.73.3c-.39-1.77-3.71-1-5-1a.5.5,0,0,0,0,1c.41,0,3.87-.28,4,.27a.5.5,0,0,0,.73.3,7.82,7.82,0,0,0,1.56-1.48l-.85-.35,0,1.72a.5.5,0,0,0,1,.13c.48-1.85-1.08-2.47-2.64-2.49-.95,0-4-.23-3.49,1.61a.86.86,0,0,0,1.68.09c.7-1.62-2.41-2.86-3.28-3.43l-.51.87c2.5,1.14,6.38,3.59,8.55.49a4.24,4.24,0,0,0,.67-2.86c.23.58-1.9,2-2.64,2.34a7.5,7.5,0,0,1-4.3.66c-.64,0-.64,1,0,1Z"/><path class="cls-12" d="M205.51,532.66c-1.57.53-3.18,1.3-3.68,3a.5.5,0,0,0,1,.27c.39-1.35,1.76-1.92,3-2.33.6-.21.34-1.17-.27-1Z"/><path class="cls-12" d="M204.86,534.16A1,1,0,0,1,204,534c-.53-.37-1,.5-.5.86a2,2,0,0,0,1.64.3c.62-.15.36-1.12-.27-1Z"/><path class="cls-12" d="M211.37,527.33a3.62,3.62,0,0,0-2.27,1.27c-.58.68-.64,2-1.34,2.43-.53.32-.91-.06-1.46.33-1,.74-1.91,2.39-2.71,3.4-.39.5.31,1.21.71.7.65-.82,1.5-2.39,2.36-3,.46-.31.83,0,1.39-.16a1.91,1.91,0,0,0,1-1.25c.53-1.37.86-2.5,2.55-2.78.64-.1.37-1.06-.26-1Z"/><path class="cls-12" d="M171.88,559c-5.8,3-11.26,6.46-14.08,12.61-.86,1.9.57,4.31,2.83,3.68l17.11-4.81c2.62-.74,2.23-5.21-.66-4.92a48.57,48.57,0,0,0-20.85,7,2.52,2.52,0,0,0,1.26,4.66,43.65,43.65,0,0,0,16.08-2.7,2.5,2.5,0,0,0-1.32-4.82l-11.2,1.88c-2.73.46-2,4,0,4.82a37.89,37.89,0,0,0,12.29,2.74l-.66-4.91c-10.68,4-24,1.79-35.18,1.56l1.77,4.27c3-2.51,7-2.11,10.69-2.82s5.78-2.55,8.84-4.44a25.2,25.2,0,0,1,4.29-2.13l.43.91c1.32,1,2.31,2.58,3.68,3.61a18.4,18.4,0,0,0,7.81,3.35v-4.82a34,34,0,0,0-6.79,1.88,2.54,2.54,0,0,0-.6,4.57c3,1.84,7.42,2.68,9.07-1.35,1.28-3.09,1.18-8.11,1.23-11.46,0-2.26-.16-4.62-1.65-6.45-3.25-4-8.34-2.09-11.73.52-6.36,4.91-12.63,8.63-20.53,10.52-2.29.55-2.48,4.41,0,4.82,6.7,1.11,12.62-2.26,15.47-8.4a2.52,2.52,0,0,0-3.42-3.42L141,572.34c-5,2.47-10.23,5.64-15.95,5.95v5a20.41,20.41,0,0,0,11.88-4.67c1.71-1.34.28-4.38-1.77-4.26a17.71,17.71,0,0,0-9.16,3c-2.7,1.75-.19,6.08,2.52,4.32a12.79,12.79,0,0,1,6.64-2.28l-1.76-4.27a14.33,14.33,0,0,1-8.35,3.2c-3.19.21-3.22,5.17,0,5,5.48-.29,10.26-2.62,15.12-5,6.16-3,12.31-6,18.46-9l-3.42-3.42c-1.81,3.92-5.22,6.87-9.82,6.11v4.82a51.21,51.21,0,0,0,18-8.08c1.07-.77,2.07-1.58,3.1-2.38a24.09,24.09,0,0,1,2.86-2.16l3.64,1.86c.54.8-.2,3.65-.28,4.65-.13,1.52.13,6.79-2.5,5.19l-.6,4.57a34,34,0,0,1,6.79-1.88c2.41-.41,2.37-4.38,0-4.82a14.48,14.48,0,0,1-6.78-3c-1.56-1.31-2.52-3.58-4.29-4.63-2.35-1.41-5.27.35-7.41,1.48s-3.76,2.79-5.85,3.81-4.6,1.18-6.93,1.49c-3.64.49-6.51,1.31-9.35,3.64-1.75,1.44-.23,4.23,1.77,4.27,11.71.24,25.31,2.46,36.5-1.74a2.51,2.51,0,0,0-.66-4.91,33.77,33.77,0,0,1-11-2.56v4.82l11.2-1.88-1.32-4.82a40.19,40.19,0,0,1-14.76,2.52l1.26,4.66a42.9,42.9,0,0,1,18.33-6.33l-.67-4.91-17.11,4.82,2.82,3.67c2.47-5.41,7.21-8.17,12.28-10.82,2.85-1.5.33-5.81-2.52-4.32Z"/><path class="cls-12" d="M132.25,585.36a99.78,99.78,0,0,0,17.87-.73c4.37-.59,8.91-1.48,11.12-5.76,1.24-2.39,1.52-6.12-1.15-7.7-3.33-2-6.64,2.12-8.92,4-1.48,1.26-.58,3.69,1.11,4.18a103.89,103.89,0,0,0,22.82,4c2.8.17,3.41-4.29.66-4.91l-12.09-2.72c-3.13-.71-4.47,4.11-1.33,4.82l12.09,2.72.67-4.91a97.89,97.89,0,0,1-21.49-3.77l1.1,4.17,2.43-2a8.9,8.9,0,0,1-3.71,2.31,30.43,30.43,0,0,1-6.84,1,99.48,99.48,0,0,1-14.34.32c-3.22-.14-3.21,4.86,0,5Z"/><path class="cls-10" d="M443.25,512.61a50,50,0,0,0,34.29-14.21c8.42-8.41,14.75-22.21,14.21-34.29-1.18-26.28-21.31-48.5-48.5-48.5A50,50,0,0,0,409,429.81c-8.42,8.42-14.75,22.22-14.21,34.3,1.18,26.28,21.31,48.5,48.5,48.5Z"/><path class="cls-10" d="M384,510.22A50,50,0,0,0,418.29,496c8.42-8.41,14.75-22.21,14.21-34.29-1.18-26.28-21.31-48.5-48.5-48.5a50,50,0,0,0-34.29,14.21c-8.42,8.41-14.75,22.21-14.21,34.29,1.18,26.28,21.31,48.5,48.5,48.5Z"/><path class="cls-10" d="M403.5,399.75c7.08,0,7.09-11,0-11s-7.09,11,0,11Z"/><path class="cls-10" d="M401.25,399.75c7.08,0,7.09-11,0-11s-7.09,11,0,11Z"/><path class="cls-10" d="M400,400c7.08,0,7.09-11,0-11s-7.09,11,0,11Z"/><path class="cls-10" d="M397,400.59c7.08,0,7.09-11,0-11s-7.09,11,0,11Z"/><path class="cls-10" d="M394.75,401.15c7.08,0,7.09-11,0-11s-7.09,11,0,11Z"/><path class="cls-10" d="M391.75,402.28c7.08,0,7.09-11,0-11s-7.09,11,0,11Z"/><path class="cls-10" d="M416,397.81c3.86,0,3.87-6,0-6s-3.87,6,0,6Z"/><path class="cls-10" d="M418,397.53c3.86,0,3.87-6,0-6s-3.87,6,0,6Z"/><path class="cls-10" d="M420,397.25c3.86,0,3.87-6,0-6s-3.87,6,0,6Z"/><path class="cls-10" d="M334,395.14c3.86,0,3.87-6,0-6s-3.87,6,0,6Z"/><path class="cls-10" d="M336.75,394.86c3.86,0,3.87-6,0-6s-3.87,6,0,6Z"/><path class="cls-10" d="M338.75,394c3.86,0,3.87-6,0-6s-3.87,6,0,6Z"/><path class="cls-10" d="M340.75,393.46c3.86,0,3.87-6,0-6s-3.87,6,0,6Z"/><circle class="cls-13" cx="905.5" cy="115.5" r="37.5"/><ellipse class="cls-14" cx="888.5" cy="161" rx="132.5" ry="28"/><ellipse class="cls-14" cx="812" cy="115.5" rx="94" ry="67.5"/><ellipse class="cls-14" cx="942" cy="142.5" rx="65" ry="40.5"/><ellipse class="cls-13" cx="567.5" cy="237.5" rx="40.5" ry="37.5"/><path class="cls-14" d="M723.16,332c-20.37,9.1-52.5,15-88.66,15C572.92,347,523,330,523,309c0-19.2,41.77-35.07,96-37.63,0,.64,0,1.29,0,1.94,0,35.51,33.13,64.3,74,64.3A83.23,83.23,0,0,0,723.16,332Z"/><ellipse class="cls-14" cx="567.5" cy="286" rx="55.5" ry="50"/><ellipse class="cls-14" cx="638" cy="253.31" rx="80" ry="75.31"/><path class="cls-14" d="M746,309c0,8.67-8.51,16.66-22.84,23A83.23,83.23,0,0,1,693,337.61c-40.87,0-74-28.79-74-64.3,0-.65,0-1.3,0-1.94,5.05-.25,10.22-.37,15.47-.37C696.08,271,746,288,746,309Z"/><path class="cls-14" d="M767,273.31c0,26.18-18,48.7-43.84,58.73,14.33-6.38,22.84-14.37,22.84-23,0-21-49.92-38-111.5-38-5.25,0-10.42.12-15.47.37,1.18-34.62,33.85-62.37,74-62.37C733.87,209,767,237.79,767,273.31Z"/><rect class="cls-15" x="1010.1" y="431.57" width="4.13" height="18.59"/><polygon class="cls-16" points="1012.28 413.19 1001.68 413.12 1007.04 403.06 1012.4 393 1017.64 403.12 1022.89 413.25 1012.28 413.19"/><polygon class="cls-16" points="1012.27 420.07 999.91 420 1006.16 407.12 1012.42 394.25 1018.53 407.19 1024.64 420.14 1012.27 420.07"/><polygon class="cls-16" points="1012.26 427.99 997.21 427.9 1004.81 415.04 1012.41 402.17 1019.86 415.12 1027.32 428.08 1012.26 427.99"/><polygon class="cls-16" points="1012.25 434.88 995.54 434.78 1003.97 421.92 1012.4 409.05 1020.68 422.01 1028.96 434.97 1012.25 434.88"/><polygon class="cls-16" points="1012.24 439.36 999.14 439.28 1005.76 426.4 1012.39 413.53 1018.87 426.48 1025.35 439.43 1012.24 439.36"/><rect class="cls-15" x="989.35" y="431.82" width="3.65" height="16.42"/><polygon class="cls-17" points="991.28 415.59 981.92 415.54 986.65 406.65 991.38 397.77 996.01 406.71 1000.64 415.64 991.28 415.59"/><polygon class="cls-17" points="991.27 421.67 980.35 421.61 985.88 410.24 991.4 398.87 996.79 410.3 1002.19 421.73 991.27 421.67"/><polygon class="cls-17" points="991.26 428.66 977.97 428.59 984.68 417.22 991.39 405.86 997.97 417.3 1004.55 428.74 991.26 428.66"/><polygon class="cls-17" points="991.25 434.74 976.5 434.66 983.94 423.3 991.38 411.94 998.69 423.38 1006 434.83 991.25 434.74"/><polygon class="cls-17" points="991.24 438.69 979.67 438.63 985.52 427.26 991.37 415.89 997.09 427.33 1002.81 438.76 991.24 438.69"/><rect class="cls-15" x="974.35" y="444.82" width="3.65" height="16.42"/><polygon class="cls-17" points="976.28 428.59 966.92 428.54 971.65 419.65 976.38 410.77 981.01 419.71 985.64 428.64 976.28 428.59"/><polygon class="cls-17" points="976.27 434.67 965.35 434.61 970.88 423.24 976.4 411.87 981.79 423.3 987.19 434.73 976.27 434.67"/><polygon class="cls-17" points="976.26 441.66 962.97 441.59 969.68 430.22 976.39 418.86 982.97 430.3 989.55 441.74 976.26 441.66"/><polygon class="cls-17" points="976.25 447.74 961.5 447.66 968.94 436.3 976.38 424.94 983.69 436.38 991 447.83 976.25 447.74"/><polygon class="cls-17" points="976.24 451.69 964.67 451.63 970.52 440.26 976.37 428.89 982.09 440.33 987.81 451.76 976.24 451.69"/><rect class="cls-15" x="950.35" y="436.82" width="3.65" height="16.42"/><polygon class="cls-17" points="952.28 420.59 942.92 420.54 947.65 411.65 952.38 402.77 957.01 411.71 961.64 420.64 952.28 420.59"/><polygon class="cls-17" points="952.27 426.67 941.35 426.61 946.88 415.24 952.4 403.87 957.79 415.3 963.19 426.73 952.27 426.67"/><polygon class="cls-17" points="952.26 433.66 938.97 433.59 945.68 422.22 952.39 410.86 958.97 422.3 965.55 433.74 952.26 433.66"/><polygon class="cls-17" points="952.25 439.74 937.5 439.66 944.94 428.3 952.38 416.94 959.69 428.38 967 439.83 952.25 439.74"/><polygon class="cls-17" points="952.24 443.69 940.67 443.63 946.52 432.26 952.37 420.89 958.09 432.33 963.81 443.76 952.24 443.69"/><rect class="cls-15" x="1018.35" y="457.82" width="3.65" height="16.42"/><polygon class="cls-17" points="1020.28 441.59 1010.92 441.54 1015.65 432.65 1020.38 423.77 1025.01 432.71 1029.64 441.64 1020.28 441.59"/><polygon class="cls-17" points="1020.27 447.67 1009.35 447.61 1014.88 436.24 1020.4 424.87 1025.8 436.3 1031.19 447.73 1020.27 447.67"/><polygon class="cls-17" points="1020.26 454.66 1006.97 454.59 1013.68 443.22 1020.39 431.86 1026.97 443.3 1033.55 454.74 1020.26 454.66"/><polygon class="cls-17" points="1020.25 460.74 1005.5 460.66 1012.94 449.3 1020.38 437.94 1027.69 449.38 1035 460.83 1020.25 460.74"/><polygon class="cls-17" points="1020.24 464.69 1008.67 464.63 1014.52 453.26 1020.37 441.89 1026.09 453.33 1031.81 464.76 1020.24 464.69"/><rect class="cls-15" x="1034.35" y="442.82" width="3.65" height="16.42"/><polygon class="cls-17" points="1036.28 426.59 1026.92 426.54 1031.65 417.65 1036.38 408.77 1041.01 417.71 1045.64 426.64 1036.28 426.59"/><polygon class="cls-17" points="1036.27 432.67 1025.35 432.61 1030.88 421.24 1036.4 409.87 1041.8 421.3 1047.19 432.73 1036.27 432.67"/><polygon class="cls-17" points="1036.26 439.66 1022.97 439.59 1029.68 428.22 1036.39 416.86 1042.97 428.3 1049.55 439.74 1036.26 439.66"/><polygon class="cls-17" points="1036.25 445.74 1021.5 445.66 1028.94 434.3 1036.38 422.94 1043.69 434.38 1051 445.83 1036.25 445.74"/><polygon class="cls-17" points="1036.24 449.69 1024.67 449.63 1030.52 438.26 1036.37 426.89 1042.09 438.33 1047.81 449.76 1036.24 449.69"/><rect class="cls-15" x="1055.35" y="450.82" width="3.65" height="16.42"/><polygon class="cls-17" points="1057.28 434.59 1047.92 434.54 1052.65 425.65 1057.38 416.77 1062.01 425.71 1066.64 434.64 1057.28 434.59"/><polygon class="cls-17" points="1057.27 440.67 1046.35 440.61 1051.88 429.24 1057.4 417.87 1062.8 429.3 1068.19 440.73 1057.27 440.67"/><polygon class="cls-17" points="1057.26 447.66 1043.97 447.59 1050.68 436.22 1057.39 424.86 1063.97 436.3 1070.55 447.74 1057.26 447.66"/><polygon class="cls-17" points="1057.25 453.74 1042.5 453.66 1049.94 442.3 1057.38 430.94 1064.69 442.38 1072 453.83 1057.25 453.74"/><polygon class="cls-17" points="1057.24 457.69 1045.67 457.63 1051.52 446.26 1057.37 434.89 1063.09 446.33 1068.81 457.76 1057.24 457.69"/><rect class="cls-15" x="1044.1" y="470.57" width="4.13" height="18.59"/><polygon class="cls-16" points="1046.29 452.19 1035.68 452.12 1041.04 442.06 1046.4 432 1051.64 442.12 1056.89 452.25 1046.29 452.19"/><polygon class="cls-16" points="1046.27 459.07 1033.91 459 1040.16 446.12 1046.42 433.25 1052.53 446.19 1058.64 459.14 1046.27 459.07"/><polygon class="cls-16" points="1046.26 466.99 1031.2 466.9 1038.81 454.04 1046.41 441.17 1053.86 454.12 1061.32 467.08 1046.26 466.99"/><polygon class="cls-16" points="1046.25 473.88 1029.54 473.78 1037.97 460.92 1046.4 448.05 1054.68 461.01 1062.96 473.97 1046.25 473.88"/><polygon class="cls-16" points="1046.24 478.36 1033.14 478.28 1039.76 465.4 1046.39 452.53 1052.87 465.48 1059.35 478.43 1046.24 478.36"/><rect class="cls-15" x="1010.1" y="499.57" width="4.13" height="18.59"/><polygon class="cls-16" points="1012.28 481.19 1001.68 481.12 1007.04 471.06 1012.4 461 1017.64 471.12 1022.89 481.25 1012.28 481.19"/><polygon class="cls-16" points="1012.27 488.07 999.91 488 1006.16 475.12 1012.42 462.25 1018.53 475.19 1024.64 488.14 1012.27 488.07"/><polygon class="cls-16" points="1012.26 495.99 997.21 495.9 1004.81 483.04 1012.41 470.17 1019.86 483.12 1027.32 496.08 1012.26 495.99"/><polygon class="cls-16" points="1012.25 502.88 995.54 502.78 1003.97 489.92 1012.4 477.05 1020.68 490.01 1028.96 502.97 1012.25 502.88"/><polygon class="cls-16" points="1012.24 507.36 999.14 507.28 1005.76 494.4 1012.39 481.53 1018.87 494.48 1025.35 507.43 1012.24 507.36"/><rect class="cls-15" x="1033.35" y="496.82" width="3.65" height="16.42"/><polygon class="cls-17" points="1035.28 480.59 1025.92 480.54 1030.65 471.65 1035.38 462.77 1040.01 471.71 1044.64 480.64 1035.28 480.59"/><polygon class="cls-17" points="1035.27 486.67 1024.35 486.61 1029.88 475.24 1035.4 463.87 1040.8 475.3 1046.19 486.73 1035.27 486.67"/><polygon class="cls-17" points="1035.26 493.66 1021.97 493.59 1028.68 482.22 1035.39 470.86 1041.97 482.3 1048.55 493.74 1035.26 493.66"/><polygon class="cls-17" points="1035.25 499.74 1020.5 499.66 1027.94 488.3 1035.38 476.94 1042.69 488.38 1050 499.83 1035.25 499.74"/><polygon class="cls-17" points="1035.24 503.69 1023.67 503.63 1029.52 492.26 1035.37 480.89 1041.09 492.33 1046.81 503.76 1035.24 503.69"/><rect class="cls-15" x="905.35" y="456.82" width="3.65" height="16.42"/><polygon class="cls-17" points="907.28 440.59 897.92 440.54 902.65 431.65 907.38 422.77 912.01 431.71 916.64 440.64 907.28 440.59"/><polygon class="cls-17" points="907.27 446.67 896.35 446.61 901.88 435.24 907.4 423.87 912.79 435.3 918.19 446.73 907.27 446.67"/><polygon class="cls-17" points="907.26 453.66 893.97 453.59 900.68 442.22 907.39 430.86 913.97 442.3 920.55 453.74 907.26 453.66"/><polygon class="cls-17" points="907.25 459.74 892.5 459.66 899.94 448.3 907.38 436.94 914.69 448.38 922 459.83 907.25 459.74"/><polygon class="cls-17" points="907.24 463.69 895.67 463.63 901.52 452.26 907.37 440.89 913.09 452.33 918.81 463.76 907.24 463.69"/><rect class="cls-15" x="922.35" y="436.82" width="3.65" height="16.42"/><polygon class="cls-17" points="924.28 420.59 914.92 420.54 919.65 411.65 924.38 402.77 929.01 411.71 933.64 420.64 924.28 420.59"/><polygon class="cls-17" points="924.27 426.67 913.35 426.61 918.88 415.24 924.4 403.87 929.79 415.3 935.19 426.73 924.27 426.67"/><polygon class="cls-17" points="924.26 433.66 910.97 433.59 917.68 422.22 924.39 410.86 930.97 422.3 937.55 433.74 924.26 433.66"/><polygon class="cls-17" points="924.25 439.74 909.5 439.66 916.94 428.3 924.38 416.94 931.69 428.38 939 439.83 924.25 439.74"/><polygon class="cls-17" points="924.24 443.69 912.67 443.63 918.52 432.26 924.37 420.89 930.09 432.33 935.81 443.76 924.24 443.69"/><rect class="cls-15" x="934.1" y="450.57" width="4.13" height="18.59"/><polygon class="cls-16" points="936.28 432.19 925.68 432.12 931.04 422.06 936.4 412 941.64 422.12 946.89 432.25 936.28 432.19"/><polygon class="cls-16" points="936.27 439.07 923.91 439 930.16 426.12 936.42 413.25 942.53 426.19 948.64 439.14 936.27 439.07"/><polygon class="cls-16" points="936.26 446.99 921.21 446.9 928.81 434.04 936.41 421.17 943.86 434.12 951.32 447.08 936.26 446.99"/><polygon class="cls-16" points="936.25 453.88 919.54 453.78 927.97 440.92 936.4 428.05 944.68 441.01 952.96 453.97 936.25 453.88"/><polygon class="cls-16" points="936.24 458.36 923.14 458.28 929.76 445.4 936.39 432.53 942.87 445.48 949.35 458.43 936.24 458.36"/><rect class="cls-15" x="875.35" y="457.82" width="3.65" height="16.42"/><polygon class="cls-17" points="877.28 441.59 867.92 441.54 872.65 432.65 877.38 423.77 882.01 432.71 886.64 441.64 877.28 441.59"/><polygon class="cls-17" points="877.27 447.67 866.35 447.61 871.88 436.24 877.4 424.87 882.79 436.3 888.19 447.73 877.27 447.67"/><polygon class="cls-17" points="877.26 454.66 863.97 454.59 870.68 443.22 877.39 431.86 883.97 443.3 890.55 454.74 877.26 454.66"/><polygon class="cls-17" points="877.25 460.74 862.5 460.66 869.94 449.3 877.38 437.94 884.69 449.38 892 460.83 877.25 460.74"/><polygon class="cls-17" points="877.24 464.69 865.67 464.63 871.52 453.26 877.37 441.89 883.09 453.33 888.81 464.76 877.24 464.69"/><rect class="cls-15" x="992.1" y="460.57" width="4.13" height="18.59"/><polygon class="cls-16" points="994.28 442.19 983.68 442.12 989.04 432.06 994.4 422 999.64 432.12 1004.89 442.25 994.28 442.19"/><polygon class="cls-16" points="994.27 449.07 981.91 449 988.16 436.12 994.42 423.25 1000.53 436.19 1006.64 449.14 994.27 449.07"/><polygon class="cls-16" points="994.26 456.99 979.21 456.9 986.81 444.04 994.41 431.17 1001.86 444.12 1009.32 457.08 994.26 456.99"/><polygon class="cls-16" points="994.25 463.88 977.54 463.78 985.97 450.92 994.4 438.05 1002.68 451.01 1010.96 463.97 994.25 463.88"/><polygon class="cls-16" points="994.24 468.36 981.14 468.28 987.76 455.4 994.39 442.53 1000.87 455.48 1007.35 468.43 994.24 468.36"/><rect class="cls-15" x="977.35" y="491.82" width="3.65" height="16.42"/><polygon class="cls-17" points="979.28 475.59 969.92 475.54 974.65 466.65 979.38 457.77 984.01 466.71 988.64 475.64 979.28 475.59"/><polygon class="cls-17" points="979.27 481.67 968.35 481.61 973.88 470.24 979.4 458.87 984.79 470.3 990.19 481.73 979.27 481.67"/><polygon class="cls-17" points="979.26 488.66 965.97 488.59 972.68 477.22 979.39 465.86 985.97 477.3 992.55 488.74 979.26 488.66"/><polygon class="cls-17" points="979.25 494.74 964.5 494.66 971.94 483.3 979.38 471.94 986.69 483.38 994 494.83 979.25 494.74"/><polygon class="cls-17" points="979.24 498.69 967.67 498.63 973.52 487.26 979.37 475.89 985.09 487.33 990.81 498.76 979.24 498.69"/><rect class="cls-15" x="133.87" y="313.43" width="2.66" height="11.97"/><polygon class="cls-17" points="135.27 301.6 128.45 301.56 131.9 295.09 135.35 288.61 138.72 295.13 142.09 301.64 135.27 301.6"/><polygon class="cls-17" points="135.26 306.03 127.31 305.99 131.34 297.7 135.36 289.41 139.29 297.75 143.22 306.08 135.26 306.03"/><polygon class="cls-17" points="135.26 311.13 125.57 311.07 130.46 302.79 135.35 294.51 140.15 302.85 144.95 311.18 135.26 311.13"/><polygon class="cls-17" points="135.25 315.56 124.5 315.5 129.92 307.22 135.34 298.94 140.67 307.28 146 315.62 135.25 315.56"/><polygon class="cls-17" points="135.25 318.44 126.81 318.39 131.08 310.11 135.34 301.82 139.51 310.15 143.68 318.49 135.25 318.44"/><rect class="cls-15" x="159.87" y="315.43" width="2.66" height="11.97"/><polygon class="cls-17" points="161.27 303.6 154.45 303.56 157.9 297.09 161.35 290.61 164.72 297.13 168.09 303.64 161.27 303.6"/><polygon class="cls-17" points="161.26 308.03 153.31 307.99 157.34 299.7 161.36 291.41 165.29 299.75 169.22 308.08 161.26 308.03"/><polygon class="cls-17" points="161.26 313.13 151.57 313.07 156.46 304.79 161.35 296.51 166.15 304.85 170.95 313.18 161.26 313.13"/><polygon class="cls-17" points="161.25 317.56 150.5 317.5 155.92 309.22 161.34 300.94 166.67 309.28 172 317.62 161.25 317.56"/><polygon class="cls-17" points="161.25 320.44 152.81 320.39 157.08 312.11 161.34 303.82 165.51 312.15 169.68 320.49 161.25 320.44"/><rect class="cls-15" x="149.87" y="321.43" width="2.66" height="11.97"/><polygon class="cls-16" points="151.27 309.6 144.45 309.56 147.9 303.09 151.35 296.61 154.72 303.13 158.09 309.64 151.27 309.6"/><polygon class="cls-16" points="151.26 314.03 143.31 313.99 147.34 305.7 151.36 297.41 155.29 305.75 159.22 314.08 151.26 314.03"/><polygon class="cls-16" points="151.26 319.13 141.57 319.07 146.46 310.79 151.35 302.51 156.15 310.85 160.95 319.18 151.26 319.13"/><polygon class="cls-16" points="151.25 323.56 140.5 323.5 145.92 315.22 151.34 306.94 156.67 315.28 162 323.62 151.25 323.56"/><polygon class="cls-16" points="151.25 326.44 142.81 326.39 147.08 318.11 151.34 309.82 155.51 318.15 159.68 326.49 151.25 326.44"/><rect class="cls-15" x="144.87" y="329.43" width="2.66" height="11.97"/><polygon class="cls-17" points="146.27 317.6 139.45 317.56 142.9 311.09 146.35 304.61 149.72 311.13 153.09 317.64 146.27 317.6"/><polygon class="cls-17" points="146.26 322.03 138.31 321.99 142.34 313.7 146.36 305.41 150.29 313.75 154.22 322.08 146.26 322.03"/><polygon class="cls-17" points="146.26 327.13 136.57 327.07 141.46 318.79 146.35 310.51 151.15 318.85 155.95 327.18 146.26 327.13"/><polygon class="cls-17" points="146.25 331.56 135.5 331.5 140.92 323.22 146.34 314.94 151.67 323.28 157 331.62 146.25 331.56"/><polygon class="cls-17" points="146.25 334.44 137.81 334.39 142.08 326.11 146.34 317.82 150.51 326.15 154.68 334.49 146.25 334.44"/><rect class="cls-15" x="116.87" y="330.43" width="2.66" height="11.97"/><polygon class="cls-17" points="118.27 318.6 111.45 318.56 114.9 312.09 118.35 305.61 121.72 312.13 125.09 318.64 118.27 318.6"/><polygon class="cls-17" points="118.27 323.03 110.31 322.99 114.33 314.7 118.36 306.41 122.29 314.75 126.22 323.08 118.27 323.03"/><polygon class="cls-17" points="118.26 328.13 108.57 328.07 113.46 319.79 118.35 311.51 123.15 319.85 127.95 328.18 118.26 328.13"/><polygon class="cls-17" points="118.25 332.56 107.5 332.5 112.92 324.22 118.34 315.94 123.67 324.28 129 332.62 118.25 332.56"/><polygon class="cls-17" points="118.25 335.44 109.81 335.39 114.08 327.11 118.34 318.82 122.51 327.15 126.68 335.49 118.25 335.44"/><rect class="cls-15" x="129.87" y="331.43" width="2.66" height="11.97"/><polygon class="cls-16" points="131.27 319.6 124.45 319.56 127.9 313.09 131.35 306.61 134.72 313.13 138.09 319.64 131.27 319.6"/><polygon class="cls-16" points="131.26 324.03 123.31 323.99 127.33 315.7 131.36 307.41 135.29 315.75 139.22 324.08 131.26 324.03"/><polygon class="cls-16" points="131.26 329.13 121.57 329.07 126.46 320.79 131.35 312.51 136.15 320.85 140.95 329.18 131.26 329.13"/><polygon class="cls-16" points="131.25 333.56 120.5 333.5 125.92 325.22 131.34 316.94 136.67 325.28 142 333.62 131.25 333.56"/><polygon class="cls-16" points="131.25 336.44 122.81 336.39 127.08 328.11 131.34 319.82 135.51 328.15 139.68 336.49 131.25 336.44"/><rect class="cls-15" x="888.1" y="467.57" width="4.13" height="18.59"/><polygon class="cls-16" points="890.28 449.19 879.68 449.12 885.04 439.06 890.4 429 895.64 439.12 900.89 449.25 890.28 449.19"/><polygon class="cls-16" points="890.27 456.07 877.91 456 884.16 443.12 890.42 430.25 896.53 443.19 902.64 456.14 890.27 456.07"/><polygon class="cls-16" points="890.26 463.99 875.21 463.9 882.81 451.04 890.41 438.17 897.86 451.12 905.32 464.08 890.26 463.99"/><polygon class="cls-16" points="890.25 470.88 873.54 470.78 881.97 457.92 890.4 445.05 898.68 458.01 906.96 470.97 890.25 470.88"/><polygon class="cls-16" points="890.24 475.36 877.14 475.28 883.76 462.4 890.39 449.53 896.87 462.48 903.35 475.43 890.24 475.36"/><rect class="cls-15" x="962.35" y="467.82" width="3.65" height="16.42"/><polygon class="cls-17" points="964.28 451.59 954.92 451.54 959.65 442.65 964.38 433.77 969.01 442.71 973.64 451.64 964.28 451.59"/><polygon class="cls-17" points="964.27 457.67 953.35 457.61 958.88 446.24 964.4 434.87 969.79 446.3 975.19 457.73 964.27 457.67"/><polygon class="cls-17" points="964.26 464.66 950.97 464.59 957.68 453.22 964.39 441.86 970.97 453.3 977.55 464.74 964.26 464.66"/><polygon class="cls-17" points="964.25 470.74 949.5 470.66 956.94 459.3 964.38 447.94 971.69 459.38 979 470.83 964.25 470.74"/><polygon class="cls-17" points="964.24 474.69 952.67 474.63 958.52 463.26 964.37 451.89 970.09 463.33 975.81 474.76 964.24 474.69"/><rect class="cls-15" x="941.1" y="489.57" width="4.13" height="18.59"/><polygon class="cls-16" points="943.28 471.19 932.68 471.12 938.04 461.06 943.4 451 948.64 461.12 953.89 471.25 943.28 471.19"/><polygon class="cls-16" points="943.27 478.07 930.91 478 937.16 465.12 943.42 452.25 949.53 465.19 955.64 478.14 943.27 478.07"/><polygon class="cls-16" points="943.26 485.99 928.21 485.9 935.81 473.04 943.41 460.17 950.86 473.12 958.32 486.08 943.26 485.99"/><polygon class="cls-16" points="943.25 492.88 926.54 492.78 934.97 479.92 943.4 467.05 951.68 480.01 959.96 492.97 943.25 492.88"/><polygon class="cls-16" points="943.24 497.36 930.14 497.28 936.76 484.4 943.39 471.53 949.87 484.48 956.35 497.43 943.24 497.36"/><rect class="cls-15" x="113.87" y="349.43" width="2.66" height="11.97"/><polygon class="cls-16" points="115.27 337.6 108.45 337.56 111.9 331.09 115.35 324.61 118.72 331.13 122.09 337.64 115.27 337.6"/><polygon class="cls-16" points="115.27 342.03 107.31 341.99 111.33 333.7 115.36 325.41 119.29 333.75 123.22 342.08 115.27 342.03"/><polygon class="cls-16" points="115.26 347.13 105.57 347.07 110.46 338.79 115.35 330.51 120.15 338.85 124.95 347.18 115.26 347.13"/><polygon class="cls-16" points="115.25 351.56 104.5 351.5 109.92 343.22 115.34 334.94 120.67 343.28 126 351.62 115.25 351.56"/><polygon class="cls-16" points="115.25 354.44 106.81 354.39 111.08 346.11 115.34 337.82 119.51 346.15 123.68 354.49 115.25 354.44"/><rect class="cls-15" x="121.87" y="350.43" width="2.66" height="11.97"/><polygon class="cls-17" points="123.27 338.6 116.45 338.56 119.9 332.09 123.35 325.61 126.72 332.13 130.09 338.64 123.27 338.6"/><polygon class="cls-17" points="123.27 343.03 115.31 342.99 119.33 334.7 123.36 326.41 127.29 334.75 131.22 343.08 123.27 343.03"/><polygon class="cls-17" points="123.26 348.13 113.57 348.07 118.46 339.79 123.35 331.51 128.15 339.85 132.95 348.18 123.26 348.13"/><polygon class="cls-17" points="123.25 352.56 112.5 352.5 117.92 344.22 123.34 335.94 128.67 344.28 134 352.62 123.25 352.56"/><polygon class="cls-17" points="123.25 355.44 114.81 355.39 119.08 347.11 123.34 338.82 127.51 347.15 131.68 355.49 123.25 355.44"/><rect class="cls-15" x="134.87" y="354.43" width="2.66" height="11.97"/><polygon class="cls-17" points="136.27 342.6 129.45 342.56 132.9 336.09 136.35 329.61 139.72 336.13 143.09 342.64 136.27 342.6"/><polygon class="cls-17" points="136.26 347.03 128.31 346.99 132.34 338.7 136.36 330.41 140.29 338.75 144.22 347.08 136.26 347.03"/><polygon class="cls-17" points="136.26 352.13 126.57 352.07 131.46 343.79 136.35 335.51 141.15 343.85 145.95 352.18 136.26 352.13"/><polygon class="cls-17" points="136.25 356.56 125.5 356.5 130.92 348.22 136.34 339.94 141.67 348.28 147 356.62 136.25 356.56"/><polygon class="cls-17" points="136.25 359.44 127.81 359.39 132.08 351.11 136.34 342.82 140.51 351.15 144.68 359.49 136.25 359.44"/><rect class="cls-15" x="95.87" y="355.43" width="2.66" height="11.97"/><polygon class="cls-16" points="97.27 343.6 90.45 343.56 93.9 337.09 97.35 330.61 100.72 337.13 104.09 343.64 97.27 343.6"/><polygon class="cls-16" points="97.27 348.03 89.31 347.99 93.33 339.7 97.36 331.41 101.29 339.75 105.22 348.08 97.27 348.03"/><polygon class="cls-16" points="97.26 353.13 87.57 353.07 92.46 344.79 97.35 336.51 102.15 344.85 106.95 353.18 97.26 353.13"/><polygon class="cls-16" points="97.25 357.56 86.5 357.5 91.92 349.22 97.34 340.94 102.67 349.28 108 357.62 97.25 357.56"/><polygon class="cls-16" points="97.25 360.44 88.81 360.39 93.08 352.11 97.34 343.82 101.51 352.15 105.68 360.49 97.25 360.44"/><rect class="cls-15" x="103.87" y="362.43" width="2.66" height="11.97"/><polygon class="cls-17" points="105.27 350.6 98.45 350.56 101.9 344.09 105.35 337.61 108.72 344.13 112.09 350.64 105.27 350.6"/><polygon class="cls-17" points="105.27 355.03 97.31 354.99 101.33 346.7 105.36 338.41 109.29 346.75 113.22 355.08 105.27 355.03"/><polygon class="cls-17" points="105.26 360.13 95.57 360.07 100.46 351.79 105.35 343.51 110.15 351.85 114.95 360.18 105.26 360.13"/><polygon class="cls-17" points="105.25 364.56 94.5 364.5 99.92 356.22 105.34 347.94 110.67 356.28 116 364.62 105.25 364.56"/><polygon class="cls-17" points="105.25 367.44 96.81 367.39 101.08 359.11 105.34 350.82 109.51 359.15 113.68 367.49 105.25 367.44"/><rect class="cls-15" x="83.87" y="365.43" width="2.66" height="11.97"/><polygon class="cls-17" points="85.27 353.6 78.45 353.56 81.9 347.09 85.35 340.61 88.72 347.13 92.09 353.64 85.27 353.6"/><polygon class="cls-17" points="85.27 358.03 77.31 357.99 81.33 349.7 85.36 341.41 89.29 349.75 93.22 358.08 85.27 358.03"/><polygon class="cls-17" points="85.26 363.13 75.57 363.07 80.46 354.79 85.35 346.51 90.15 354.85 94.95 363.18 85.26 363.13"/><polygon class="cls-17" points="85.25 367.56 74.5 367.5 79.92 359.22 85.34 350.94 90.67 359.28 96 367.62 85.25 367.56"/><polygon class="cls-17" points="85.25 370.44 76.81 370.39 81.08 362.11 85.34 353.82 89.51 362.15 93.68 370.49 85.25 370.44"/><rect class="cls-15" x="993.35" y="515.82" width="3.65" height="16.42"/><polygon class="cls-17" points="995.28 499.59 985.92 499.54 990.65 490.65 995.38 481.77 1000.01 490.71 1004.64 499.64 995.28 499.59"/><polygon class="cls-17" points="995.27 505.67 984.35 505.61 989.88 494.24 995.4 482.87 1000.79 494.3 1006.19 505.73 995.27 505.67"/><polygon class="cls-17" points="995.26 512.66 981.97 512.59 988.68 501.22 995.39 489.86 1001.97 501.3 1008.55 512.74 995.26 512.66"/><polygon class="cls-17" points="995.25 518.74 980.5 518.66 987.94 507.3 995.38 495.94 1002.69 507.38 1010 518.83 995.25 518.74"/><polygon class="cls-17" points="995.24 522.7 983.67 522.63 989.52 511.26 995.37 499.89 1001.09 511.33 1006.81 522.76 995.24 522.7"/><rect class="cls-15" x="916.35" y="482.82" width="3.65" height="16.42"/><polygon class="cls-17" points="918.28 466.59 908.92 466.54 913.65 457.65 918.38 448.77 923.01 457.71 927.64 466.64 918.28 466.59"/><polygon class="cls-17" points="918.27 472.67 907.35 472.61 912.88 461.24 918.4 449.87 923.79 461.3 929.19 472.73 918.27 472.67"/><polygon class="cls-17" points="918.26 479.66 904.97 479.59 911.68 468.22 918.39 456.86 924.97 468.3 931.55 479.74 918.26 479.66"/><polygon class="cls-17" points="918.25 485.74 903.5 485.66 910.94 474.3 918.38 462.94 925.69 474.38 933 485.83 918.25 485.74"/><polygon class="cls-17" points="918.24 489.69 906.67 489.63 912.52 478.26 918.37 466.89 924.09 478.33 929.81 489.76 918.24 489.69"/><path class="cls-12" d="M305.33,460.33c11.51,0,22.54-10.12,22-22s-9.66-22-22-22c-11.5,0-22.53,10.12-22,22s9.67,22,22,22Z"/><path class="cls-12" d="M289.5,463c8.63,0,16.9-7.59,16.5-16.5S298.75,430,289.5,430c-8.63,0-16.9,7.59-16.5,16.5s7.25,16.5,16.5,16.5Z"/><path class="cls-12" d="M292.5,459.5c8.63,0,16.9-7.59,16.5-16.5s-7.25-16.5-16.5-16.5c-8.63,0-16.9,7.59-16.5,16.5s7.25,16.5,16.5,16.5Z"/><path class="cls-12" d="M295.33,456.5c8.63,0,16.9-7.59,16.5-16.5s-7.25-16.5-16.5-16.5c-8.63,0-16.9,7.59-16.5,16.5s7.25,16.5,16.5,16.5Z"/><path class="cls-12" d="M297,454.67c8.63,0,16.9-7.59,16.5-16.5s-7.25-16.5-16.5-16.5c-8.63,0-16.9,7.59-16.5,16.5s7.25,16.5,16.5,16.5Z"/><path class="cls-12" d="M323.83,418.83c10.94,0,11-17,0-17s-10.95,17,0,17Z"/><path class="cls-12" d="M326.17,417.67c10.94,0,10.95-17,0-17s-11,17,0,17Z"/><path class="cls-12" d="M318.5,421.5c10.94,0,11-17,0-17s-11,17,0,17Z"/><path class="cls-12" d="M313.5,424.5c10.94,0,11-17,0-17s-11,17,0,17Z"/><path class="cls-12" d="M351.67,409.83c10.94,0,10.95-17,0-17s-11,17,0,17Z"/><path class="cls-12" d="M346.83,409.5c10.94,0,11-17,0-17s-10.95,17,0,17Z"/><path class="cls-12" d="M349.33,409.17c10.94,0,11-17,0-17s-10.95,17,0,17Z"/><path class="cls-12" d="M353.5,413c10.94,0,11-17,0-17s-11,17,0,17Z"/><path class="cls-12" d="M367.67,393.5c2.57,0,2.57-4,0-4s-2.58,4,0,4Z"/><path class="cls-12" d="M358.17,395c2.57,0,2.57-4,0-4s-2.58,4,0,4Z"/><path class="cls-12" d="M383.67,392.83c2.57,0,2.57-4,0-4s-2.58,4,0,4Z"/><path class="cls-12" d="M388.17,392.83c2.57,0,2.57-4,0-4s-2.58,4,0,4Z"/><path class="cls-12" d="M387.33,393.5c2.58,0,2.58-4,0-4s-2.57,4,0,4Z"/><path class="cls-12" d="M390.14,392.33a11.76,11.76,0,0,1,4.19-1.51l4.94-1.33a1,1,0,0,0-.53-1.93l-5.65,1.52a11,11,0,0,0-4,1.52c-1,.77,0,2.51,1,1.73Z"/><path class="cls-12" d="M246.41,479.81c-1.27,2.17-2.38,4.5-4.12,6.31a8.53,8.53,0,0,0-2.39,4.79c-.19,1.26,1.74,1.81,1.93.54.36-2.42,1.77-3.45,3.14-5.3a59.38,59.38,0,0,0,3.17-5.33,1,1,0,0,0-1.73-1Z"/><path class="cls-12" d="M223.11,513.31a16.06,16.06,0,0,1-5.67,5.56,1,1,0,0,0,1,1.72,18,18,0,0,0,6.38-6.27,1,1,0,0,0-1.72-1Z"/><path class="cls-12" d="M332.5,491.5v1.67a1,1,0,0,0,2,0V491.5a1,1,0,0,0-2,0Z"/><path class="cls-12" d="M332,502.59a25.19,25.19,0,0,0-.64,5.74,1,1,0,0,0,2,0,22.85,22.85,0,0,1,.57-5.21c.29-1.25-1.64-1.79-1.93-.53Z"/><path class="cls-12" d="M213,525.25a7.27,7.27,0,0,0-2,2.23c-.32.53-.6,1.11-.88,1.66s-.75,2.51-.73.78c0-1.32-1.85-1.24-2,0-.22,1.8-3.82,7.47-5.63,7.77l1.13,1.47,2.5-3.29c.52-.69-.35-1.75-1.13-1.47a14.15,14.15,0,0,0-4.21,2.34c-.4.35-1.89,2.13-2.13,2.09l-.27,2,1.23,0c1.29,0,1.29-2,0-2l-1.23,0c-1.1,0-1.39,1.77-.26,2a2.94,2.94,0,0,0,3.07-1c1.27-1.47,2.25-2.71,4.33-3.45l-1.13-1.47-2.5,3.29c-.59.78.38,1.6,1.13,1.47,2.07-.34,2.93-2.07,4-3.73,1.17-1.86,2.86-3.75,3.13-6h-2a7.24,7.24,0,0,0,.16,2.23,1,1,0,0,0,.7.7c3,.66,4-4.53,5.77-5.87,1-.77,0-2.51-1-1.73Z"/><path class="cls-12" d="M188.76,546.87a3.79,3.79,0,0,0-2.15,1.15,19.8,19.8,0,0,1-4.36,2.73c-2.88,1.47-5.39,5.44-8.61,5.88-1.11.15-.86,2.06.27,2s1.39-1.29,1.93-1.36l-.87-1.51c-.81,1.27-2.92,1.42-4.15,2.25-1.06.71-.06,2.45,1,1.73,1.79-1.21,3.64-1.05,4.87-3a1,1,0,0,0-.86-1.5c-.77.1-1.69,1.34-1.93,1.36l.26,2c3.12-.42,4.85-3.3,7.29-5a31.2,31.2,0,0,1,3.74-1.89c1.08-.57,3-2.7,4.09-2.86,1.27-.19.73-2.12-.53-1.93Z"/><path class="cls-12" d="M160.25,564.53c-.65,1.75,7.93-.39,8.67-.63,2.13-.68,5.49-1.5,7.19-3.07a7.79,7.79,0,0,0,2.19-5.42,1,1,0,0,0-.5-.86l-.32-.14c-1.15-.5-2.18,1.14-1,1.73a59.58,59.58,0,0,1,8.84,5.41c1,.77,2-1,1-1.73a59.58,59.58,0,0,0-8.84-5.41l-1,1.73c-1.09-.48-.34-.18-1.08,1a5.94,5.94,0,0,1-.84,2.41,47.14,47.14,0,0,1-4.53,1.9c-3.58,1.29-7.79,1.38-11.16,3a1,1,0,0,0-.46,1.13l.19.68a1,1,0,0,0,.7.7c1.64.35,2.32-.31,2.89-1.85.45-1.21-1.48-1.73-1.93-.53Z"/><path class="cls-12" d="M136.33,575.67a1,1,0,0,0,0-2,1,1,0,0,0,0,2Z"/><path class="cls-12" d="M210.17,531a1,1,0,0,0,0-2,1,1,0,0,0,0,2Z"/><path class="cls-10" d="M393,504.17a1.5,1.5,0,0,0,0-3,1.5,1.5,0,0,0,0,3Z"/><path class="cls-10" d="M386.67,495.67a47.42,47.42,0,0,0,32.52-13.48c8-8,14-21.06,13.48-32.52-.54-11.9-4.44-24.24-13.48-32.53s-20.06-13.47-32.52-13.47a47.46,47.46,0,0,0-32.53,13.47c-8,8-14,21.07-13.47,32.53.53,11.89,4.44,24.23,13.47,32.52s20.06,13.48,32.53,13.48Z"/><path class="cls-10" d="M388,493.67a47.44,47.44,0,0,0,32.53-13.48c8-8,14-21.06,13.47-32.52-.53-11.9-4.44-24.24-13.47-32.53S400.46,401.67,388,401.67a47.48,47.48,0,0,0-32.53,13.47c-8,8-14,21.07-13.47,32.53.53,11.89,4.44,24.23,13.47,32.52s20.07,13.48,32.53,13.48Z"/><path class="cls-10" d="M382.67,501.33a47.45,47.45,0,0,0,32.52-13.47c8-8,14-21.07,13.48-32.53-.54-11.89-4.44-24.23-13.48-32.52s-20.06-13.48-32.52-13.48a47.42,47.42,0,0,0-32.53,13.48c-8,8-14,21.06-13.47,32.52.53,11.9,4.44,24.24,13.47,32.53s20.06,13.47,32.53,13.47Z"/><path class="cls-3" d="M402,388.33a14,14,0,1,0-14-14,14.21,14.21,0,0,0,14,14Z"/><path class="cls-3" d="M400.67,388.67a14,14,0,1,0-14-14,14.23,14.23,0,0,0,14,14Z"/><path class="cls-3" d="M404.67,389.33a14,14,0,1,0-14-14,14.22,14.22,0,0,0,14,14Z"/></g></svg>